<svg id="Layer_1" data-name="Layer 1" xmlns="http://www.w3.org/2000/svg" viewBox="0 0 720 72"><defs><style>.cls-1{fill:#f56354;}.cls-2{fill:#303333;}</style></defs><title>CaseWare-Logo-RGB-Primary_Dark-TM</title><path class="cls-1" d="M71.38,48a29.55,29.55,0,0,1-2.82,7.94L48.69,27.56l0,0a8.06,8.06,0,0,0-13.32,0l-.05.07L15.44,55.94A30,30,0,1,1,71.39,36H83.56A42,42,0,1,0,10,69.19a7.78,7.78,0,0,0,12.32-.53l1.8-2.57h0L42,40.53,61.68,68.67a7.73,7.73,0,0,0,12.16.7A41.78,41.78,0,0,0,83.57,48Z"/><path class="cls-2" d="M156.91,72c17.46,0,29.6-9.47,32.57-25.38H174.54c-2,8.47-8.53,13.5-17.49,13.5-12.26,0-20.5-9.63-20.5-24,0-14.51,8.24-24.26,20.5-24.26,9.07,0,15.48,4.91,17.62,13.5h14.81C186.33,9.24,174.65,0,157.33,0,136.21,0,122,14.52,122,36.14,122,58.26,135.39,72,156.91,72Z"/><path class="cls-2" d="M259.46,71.17h7.47V59h-2.6c-3.59,0-5.06-1.46-5.06-5.06V25.42C259.27,9,248.86,0,230,0,212.56,0,200.77,8.27,199,21.62h13.85c1.36-6.45,7.59-10.44,16.39-10.44,10.05,0,16.05,5,16.05,13.27v4.78H226.89c-19.35,0-30,7.94-30,22.36,0,12.59,10,20.41,26,20.41,10.27,0,17.83-3.94,23.13-12l.85-1.3v1.56C246.84,67.79,250.73,71.17,259.46,71.17ZM245.31,42.4c-.15,11.62-7.95,18.84-20.37,18.84-8.31,0-13.68-4.17-13.68-10.63,0-7.31,5.16-11.18,14.94-11.18h19.11Z"/><path class="cls-2" d="M303.72,29.5c-10.18-1.1-17.53-1.89-17.53-9.09,0-5.94,6-9.79,15.22-9.79,8.71,0,15.18,4.46,16.26,11.14h13.85C330.36,8.32,318.77,0,301.13,0h-.4c-9.52,0-17.56,2.78-22.67,7.85a19,19,0,0,0-5.69,13.82c0,13.56,11,17.6,28.67,19.72l1.1.13C312.65,42.84,319,43.64,319,51.45c0,5.95-6.25,9.79-15.91,9.79-10.48,0-17.42-4.84-18.24-12.67H271C271.64,63,283.88,72,303.08,72c17.51,0,29.73-9,29.73-21.8C332.81,34.3,319.05,31.34,303.72,29.5Z"/><path class="cls-2" d="M375,0c-20.7,0-34.6,14.52-34.6,36.14,0,21.78,14.13,35.86,36,35.86,16.4,0,28.74-9.34,31.58-23.84H393.91c-2.23,7.85-9,12.52-18.31,12.52-11.94,0-19.94-8-20.37-20.49V38.74H409a39.46,39.46,0,0,0,.36-5.24C409,13.15,395.49,0,375,0Zm-19.3,28.67.05-.51c1.1-10,9.07-17,19.39-17,11,0,18.27,6.35,19.53,17l.06.52Z"/><path class="cls-2" d="M505.44.84l-17.2,56.55L474.11,7.17A8.69,8.69,0,0,0,465.74.84h0a8.68,8.68,0,0,0-8.33,6.23l-14.8,50.32L426,.84H411.1l20.58,63.84A10.57,10.57,0,0,0,441.73,72h.18A10.56,10.56,0,0,0,452,64.63l13.6-43,13.08,42.86A10.57,10.57,0,0,0,488.76,72h0a10.56,10.56,0,0,0,10-7.27l21-63.89Z"/><path class="cls-2" d="M582.62,71.17h7.47V59h-2.6c-3.59,0-5.06-1.46-5.06-5.06V25.42C582.43,9,572,0,553.12,0c-17.4,0-29.19,8.27-30.94,21.62H536c1.36-6.45,7.59-10.44,16.39-10.44,10.05,0,16.05,5,16.05,13.27v4.78H550.05c-19.35,0-30,7.94-30,22.36C520,64.18,530,72,546,72c10.27,0,17.83-3.94,23.13-12l.85-1.3v1.56C570,67.79,573.89,71.17,582.62,71.17ZM568.47,42.4c-.15,11.62-8,18.84-20.37,18.84-8.31,0-13.68-4.17-13.68-10.63,0-7.31,5.17-11.18,14.94-11.18h19.11Z"/><path class="cls-2" d="M630.77,14H637V.84h-2.88c-9.87,0-16.23,3.23-20.62,10.49l-.66,1.09L611,.84h-12.5V71.17h14.1V35.86C612.63,22,619.24,14,630.77,14Z"/><path class="cls-2" d="M672.72,0C652,0,638.11,14.52,638.11,36.14c0,21.78,14.13,35.86,36,35.86,16.41,0,28.75-9.34,31.59-23.84H691.59c-2.23,7.85-9.05,12.52-18.31,12.52-11.94,0-19.94-8-20.37-20.49V38.74h53.78a39.46,39.46,0,0,0,.36-5.24C706.64,13.15,693.17,0,672.72,0Zm-19.3,28.67.05-.51c1.1-10,9.07-17,19.39-17,11,0,18.27,6.35,19.53,17l.06.52Z"/><path class="cls-2" d="M704.36,64.25h6.12v1.39H708.2v5.53h-1.55V65.64h-2.29Zm6.92,0h2.11l2.26,5,2.24-5H720v6.92h-1.44V65.94l-2.31,5.23H715l-2.26-5.23v5.23h-1.44Z"/></svg>